<svg width="24" height="28" viewBox="0 0 24 28" fill="none" xmlns="http://www.w3.org/2000/svg">
<rect x="4.11719" width="15.2353" height="4.11765" rx="2" fill="url(#paint0_linear_3583_12610)"/>
<rect x="5.35254" y="1.64746" width="12.7647" height="0.823529" rx="0.411765" fill="url(#paint1_linear_3583_12610)"/>
<rect x="5.76465" y="2.05859" width="2.47059" height="6.17647" fill="url(#paint2_linear_3583_12610)"/>
<rect x="8.23535" y="2.05859" width="2.05882" height="6.17647" fill="url(#paint3_linear_3583_12610)"/>
<rect x="10.2939" y="2.05859" width="2.88235" height="6.17647" fill="url(#paint4_linear_3583_12610)"/>
<rect x="13.1768" y="2.05859" width="2.05882" height="6.17647" fill="url(#paint5_linear_3583_12610)"/>
<rect x="15.2354" y="2.05859" width="2.47059" height="6.17647" fill="url(#paint6_linear_3583_12610)"/>
<path d="M11.7353 4.5293L14.3472 7.36924L18.0799 6.39223L18.7418 10.1935L22.4101 11.3896L20.9118 14.9452L23.3511 17.9347L20.1684 20.1159L20.6042 23.9496L16.7475 24.0638L15.0415 27.5245L11.7353 25.5355L8.42908 27.5245L6.72308 24.0638L2.86635 23.9496L3.3022 20.1159L0.119449 17.9347L2.55878 14.9452L1.0605 11.3896L4.72883 10.1935L5.39072 6.39223L9.12338 7.36924L11.7353 4.5293Z" fill="url(#paint7_linear_3583_12610)"/>
<circle cx="11.5295" cy="16.4709" r="9.05882" fill="url(#paint8_linear_3583_12610)"/>
<circle cx="11.529" cy="16.4704" r="7.41176" fill="url(#paint9_linear_3583_12610)"/>
<circle cx="11.5296" cy="16.471" r="6.58824" fill="url(#paint10_linear_3583_12610)"/>
<path d="M12.11 12.72C12.8 12.72 13.37 12.92 13.82 13.32C14.26 13.72 14.48 14.23 14.48 14.87C14.48 15.49 14.24 16.05 13.78 16.56C13.5 16.86 13 17.24 12.3 17.71C11.57 18.19 11.13 18.61 10.97 18.97H14.49V20H9.51C9.51 19.27 9.74 18.64 10.22 18.1C10.48 17.8 11.03 17.36 11.86 16.79C12.32 16.47 12.64 16.2 12.84 15.99C13.15 15.64 13.31 15.26 13.31 14.86C13.31 14.47 13.2 14.18 13 13.99C12.79 13.8 12.48 13.71 12.07 13.71C11.63 13.71 11.3 13.86 11.08 14.16C10.86 14.44 10.74 14.87 10.72 15.43H9.55C9.56 14.63 9.79 13.99 10.25 13.5C10.72 12.98 11.34 12.72 12.11 12.72Z" fill="#476893"/>
<defs>
<linearGradient id="paint0_linear_3583_12610" x1="12.1466" y1="-1.69448e-07" x2="12.1466" y2="3.70588" gradientUnits="userSpaceOnUse">
<stop stop-color="#F9EEE1"/>
<stop offset="1" stop-color="#FFD4B8"/>
</linearGradient>
<linearGradient id="paint1_linear_3583_12610" x1="8.18914" y1="1.62459" x2="8.20774" y2="2.55238" gradientUnits="userSpaceOnUse">
<stop stop-color="#BD5511"/>
<stop offset="1" stop-color="#DF473A"/>
</linearGradient>
<linearGradient id="paint2_linear_3583_12610" x1="6.99994" y1="2.05859" x2="6.99994" y2="8.23506" gradientUnits="userSpaceOnUse">
<stop stop-color="#F77A54"/>
<stop offset="1" stop-color="#F4552E"/>
</linearGradient>
<linearGradient id="paint3_linear_3583_12610" x1="9.26476" y1="2.05859" x2="9.26476" y2="8.23506" gradientUnits="userSpaceOnUse">
<stop offset="0.165" stop-color="#FFEFE8"/>
<stop offset="1" stop-color="#FF907E"/>
</linearGradient>
<linearGradient id="paint4_linear_3583_12610" x1="11.7351" y1="2.05859" x2="11.7351" y2="8.23506" gradientUnits="userSpaceOnUse">
<stop stop-color="#F77A54"/>
<stop offset="1" stop-color="#F4552E"/>
</linearGradient>
<linearGradient id="paint5_linear_3583_12610" x1="14.2062" y1="2.05859" x2="14.2062" y2="8.23506" gradientUnits="userSpaceOnUse">
<stop offset="0.165" stop-color="#FFEFE8"/>
<stop offset="1" stop-color="#FF907E"/>
</linearGradient>
<linearGradient id="paint6_linear_3583_12610" x1="16.4706" y1="2.05859" x2="16.4706" y2="8.23506" gradientUnits="userSpaceOnUse">
<stop stop-color="#F77A54"/>
<stop offset="1" stop-color="#F4552E"/>
</linearGradient>
<linearGradient id="paint7_linear_3583_12610" x1="7.20588" y1="6.58812" x2="17.2941" y2="25.5293" gradientUnits="userSpaceOnUse">
<stop stop-color="#DEE6EE"/>
<stop offset="0.970619" stop-color="#B6B8C9"/>
</linearGradient>
<linearGradient id="paint8_linear_3583_12610" x1="8.02953" y1="8.85328" x2="16.2648" y2="24.7062" gradientUnits="userSpaceOnUse">
<stop stop-color="#F2FAFE"/>
<stop offset="1" stop-color="#CACCDC"/>
</linearGradient>
<linearGradient id="paint9_linear_3583_12610" x1="7.4113" y1="8.64683" x2="12.1466" y2="23.8821" gradientUnits="userSpaceOnUse">
<stop stop-color="#9498A0"/>
<stop offset="1" stop-color="#F3F3FF"/>
</linearGradient>
<linearGradient id="paint10_linear_3583_12610" x1="9.47082" y1="12.1475" x2="13.3826" y2="22.4416" gradientUnits="userSpaceOnUse">
<stop stop-color="#FAFAFB"/>
<stop offset="1" stop-color="#D3D4DF"/>
</linearGradient>
</defs>
</svg>
