<svg xmlns="http://www.w3.org/2000/svg" width="440" height="440" fill="none" data-c="1"><g filter="url(#a)"><path fill="#C1CBFF" fill-rule="evenodd" d="M289.887 220c0 38.598-31.289 69.888-69.887 69.888s-69.887-31.29-69.887-69.888c0-38.597 31.289-69.887 69.887-69.887s69.887 31.29 69.887 69.887" clip-rule="evenodd"/></g><path fill="#EFF2FF" stroke="#fff" stroke-width="12" d="M294 220c0 40.869-33.131 74-74 74s-74-33.131-74-74 33.131-74 74-74 74 33.131 74 74Z"/><path fill="#fff" fill-rule="evenodd" d="M295.305 220c0 41.59-33.715 75.305-75.305 75.305S144.695 261.59 144.695 220 178.41 144.695 220 144.695 295.305 178.41 295.305 220" clip-rule="evenodd"/><g filter="url(#b)"><path fill="#FF7070" fill-opacity=".7" fill-rule="evenodd" d="M291 179.037c0 9.921-8.042 17.963-17.963 17.963s-17.963-8.042-17.963-17.963c0-9.92 8.042-17.963 17.963-17.963S291 169.117 291 179.037" clip-rule="evenodd"/></g><path fill="url(#c)" fill-rule="evenodd" d="M286.926 174.963c0 9.921-8.042 17.963-17.963 17.963S251 184.884 251 174.963 259.042 157 268.963 157s17.963 8.042 17.963 17.963" clip-rule="evenodd"/><mask id="d" width="18" height="18" x="260.111" y="166.482" fill="#000" maskUnits="userSpaceOnUse"><path fill="#fff" d="M260.111 166.482h18v18h-18z"/><path fill-rule="evenodd" d="M274.889 174.594h-5.556v-5.556a.556.556 0 1 0-1.111 0v5.556h-5.555a.555.555 0 1 0 0 1.111h5.555v5.555a.556.556 0 0 0 1.111 0v-5.555h5.556a.557.557 0 0 0 .393-.949.56.56 0 0 0-.393-.162" clip-rule="evenodd"/></mask><path fill="#fff" fill-rule="evenodd" d="M274.889 174.594h-5.556v-5.556a.556.556 0 1 0-1.111 0v5.556h-5.555a.555.555 0 1 0 0 1.111h5.555v5.555a.556.556 0 0 0 1.111 0v-5.555h5.556a.557.557 0 0 0 .393-.949.56.56 0 0 0-.393-.162" clip-rule="evenodd"/><path fill="#fff" d="M269.333 174.594h-2v2h2zm-.162-5.949 1.414-1.414zm-.393-.163v-2zm-.393.163-1.414-1.414zm-.163 5.949v2h2v-2zm-5.948.162-1.414-1.414zm-.163.393h-2zm.163.393-1.414 1.414zm5.948.163h2v-2h-2zm1.111 0v-2h-2v2zm5.556-3.111h-5.556v4h5.556zm-3.556 2v-5.556h-4v5.556zm0-5.556c0-.678-.269-1.328-.748-1.807l-2.829 2.828a1.44 1.44 0 0 1-.423-1.021zm-.748-1.807a2.56 2.56 0 0 0-1.807-.749v4c-.383 0-.751-.152-1.022-.423zm-1.807-.749c-.678 0-1.328.27-1.807.749l2.828 2.828a1.44 1.44 0 0 1-1.021.423zm-1.807.749a2.55 2.55 0 0 0-.749 1.807h4c0 .383-.152.75-.423 1.021zm-.749 1.807v5.556h4v-5.556zm2 3.556h-5.555v4h5.555zm-5.555 0c-.678 0-1.328.269-1.807.748l2.828 2.828a1.44 1.44 0 0 1-1.021.424zm-1.807.748a2.55 2.55 0 0 0-.749 1.807h4c0 .383-.152.751-.423 1.021zm-.749 1.807c0 .678.269 1.328.749 1.807l2.828-2.828c.271.271.423.638.423 1.021zm.749 1.807a2.56 2.56 0 0 0 1.807.749v-4c.383 0 .75.152 1.021.423zm1.807.749h5.555v-4h-5.555zm3.555-2v5.555h4v-5.555zm0 5.555c0 .678.269 1.328.749 1.807l2.828-2.828c.271.271.423.638.423 1.021zm.749 1.807c.479.48 1.129.749 1.807.749v-4c.383 0 .75.152 1.021.423zm1.807.749c.677 0 1.327-.269 1.807-.749l-2.829-2.828a1.45 1.45 0 0 1 1.022-.423zm1.807-.749a2.56 2.56 0 0 0 .748-1.807h-4c0-.383.152-.75.423-1.021zm.748-1.807v-5.555h-4v5.555zm-2-3.555h5.556v-4h-5.556zm5.556 0c.677 0 1.328-.269 1.807-.749l-2.828-2.828a1.44 1.44 0 0 1 1.021-.423zm1.807-.749a2.56 2.56 0 0 0 .748-1.807h-4c0-.383.152-.75.424-1.021zm.748-1.807c0-.677-.269-1.328-.748-1.807l-2.828 2.828a1.44 1.44 0 0 1-.424-1.021zm-.748-1.807a2.56 2.56 0 0 0-1.807-.748v4c-.383 0-.75-.153-1.021-.424z" mask="url(#d)"/><path fill="url(#e)" fill-rule="evenodd" d="M227.488 193.392h3.844a7.832 7.832 0 1 1 0 15.663h-23.353a7.83 7.83 0 0 1-7.831-7.832 7.83 7.83 0 0 1 7.831-7.831h3.845v-3.56a7.832 7.832 0 1 1 15.664 0z" clip-rule="evenodd"/><path fill="url(#f)" fill-rule="evenodd" d="M197.45 201.016h-21.893a6.557 6.557 0 0 0-6.557 6.557v87.869a6.557 6.557 0 0 0 6.557 6.557h89.181a6.557 6.557 0 0 0 6.557-6.557v-87.869a6.557 6.557 0 0 0-6.557-6.557h-22.877a9.017 9.017 0 0 1-8.763 11.147h-26.885a9.017 9.017 0 0 1-8.763-11.147" clip-rule="evenodd"/><path fill="#fff" fill-rule="evenodd" d="M187.688 229.049a7.05 7.05 0 0 1 7.05-7.049h50.164a7.05 7.05 0 0 1 0 14.098h-50.164a7.05 7.05 0 0 1-7.05-7.049M193.59 250.526c0-1.087.881-1.967 1.967-1.967h44.591a1.967 1.967 0 0 1 0 3.934h-44.591a1.967 1.967 0 0 1-1.967-1.967M191.623 250.526a1.967 1.967 0 1 1-3.935 0 1.967 1.967 0 0 1 3.935 0M193.59 266.918c0-1.086.881-1.967 1.967-1.967h29.509a1.968 1.968 0 0 1 0 3.935h-29.509a1.97 1.97 0 0 1-1.967-1.968M191.623 266.918a1.968 1.968 0 1 1-3.935 0 1.968 1.968 0 0 1 3.935 0M193.902 282.967c0-1.086.88-1.967 1.967-1.967h29.508a1.967 1.967 0 1 1 0 3.934h-29.508a1.966 1.966 0 0 1-1.967-1.967M191.934 282.967a1.966 1.966 0 1 1-3.932.002 1.966 1.966 0 0 1 3.932-.002" clip-rule="evenodd"/><defs><linearGradient id="c" x1="251" x2="251" y1="157" y2="192.926" gradientUnits="userSpaceOnUse"><stop stop-color="#FF9898"/><stop offset="1" stop-color="#FF4F4F"/></linearGradient><linearGradient id="e" x1="200.148" x2="200.148" y1="182" y2="209.055" gradientUnits="userSpaceOnUse"><stop stop-color="#4D64DE"/><stop offset="1" stop-color="#B5C0FF"/></linearGradient><linearGradient id="f" x1="121.902" x2="184.124" y1="239.871" y2="349.091" gradientUnits="userSpaceOnUse"><stop stop-color="#B5C0FF"/><stop offset="1" stop-color="#5464DA"/></linearGradient><filter id="a" width="439.585" height="439.584" x=".208" y=".208" color-interpolation-filters="sRGB" filterUnits="userSpaceOnUse"><feFlood flood-opacity="0" result="BackgroundImageFix"/><feBlend in="SourceGraphic" in2="BackgroundImageFix" result="shape"/><feGaussianBlur result="effect1_foregroundBlur_1966_18014" stdDeviation="74.953"/></filter><filter id="b" width="115.875" height="115.875" x="215.099" y="121.099" color-interpolation-filters="sRGB" filterUnits="userSpaceOnUse"><feFlood flood-opacity="0" result="BackgroundImageFix"/><feBlend in="SourceGraphic" in2="BackgroundImageFix" result="shape"/><feGaussianBlur result="effect1_foregroundBlur_1966_18014" stdDeviation="19.987"/></filter></defs></svg>