<svg width="30" height="30" viewBox="0 0 30 30" fill="none" xmlns="http://www.w3.org/2000/svg">
<g clip-path="url(#clip0_1823_19390)">
<path d="M3.99556 17.1494C5.23308 11.7934 10.003 8 15.5 8C20.997 8 25.7669 11.7934 27.0044 17.1494L27.7611 20.4241C28.7747 24.8109 25.4432 29 20.9408 29H10.0592C5.55684 29 2.22531 24.8109 3.23891 20.4241L3.99556 17.1494Z" fill="url(#paint0_linear_1823_19390)" stroke="white" stroke-width="2"/>
<path d="M15.2424 7C12.0766 7 10.0547 4.57972 8.9077 1.92132C8.77921 1.62349 8.86271 1.4219 9.01416 1.28627C9.18862 1.13004 9.50755 1.02885 9.88512 1.17314L14.1492 2.80276C14.8589 3.07396 15.645 3.06583 16.3489 2.78002L20.277 1.185C20.6431 1.03634 20.9624 1.12505 21.1429 1.27491C21.3002 1.40557 21.3885 1.60135 21.2795 1.89519C20.2883 4.56659 18.4123 7 15.2424 7Z" fill="url(#paint1_linear_1823_19390)" stroke="white" stroke-width="2"/>
<rect x="10" y="18.6001" width="11.3143" height="1.88571" rx="0.942857" fill="#3971F3"/>
<rect x="10" y="21.4287" width="11.3143" height="1.88571" rx="0.942857" fill="#3971F3"/>
<rect x="16.6" y="17.6572" width="8.48571" height="1.88571" rx="0.942857" transform="rotate(90 16.6 17.6572)" fill="#3971F3"/>
<rect x="11.5566" y="12" width="8.48571" height="1.88571" rx="0.942857" transform="rotate(55.6351 11.5566 12)" fill="#3971F3"/>
<rect width="8.48571" height="1.88571" rx="0.942857" transform="matrix(-0.564461 0.82546 0.82546 0.564461 19.5041 12)" fill="#3971F3"/>
<rect x="11" y="6" width="8" height="2" rx="1" fill="#3971F3"/>
</g>
<defs>
<linearGradient id="paint0_linear_1823_19390" x1="3.54286" y1="29.1481" x2="24.6431" y2="13.0297" gradientUnits="userSpaceOnUse">
<stop stop-color="white"/>
<stop offset="1" stop-color="#D2E9FF"/>
</linearGradient>
<linearGradient id="paint1_linear_1823_19390" x1="15" y1="-1" x2="15" y2="8" gradientUnits="userSpaceOnUse">
<stop stop-color="white"/>
<stop offset="1" stop-color="#D2E9FF"/>
</linearGradient>
<clipPath id="clip0_1823_19390">
<rect width="30" height="30" fill="white"/>
</clipPath>
</defs>
</svg>
