<svg width="24" height="24" viewBox="0 0 24 24" fill="none" xmlns="http://www.w3.org/2000/svg">
<g clip-path="url(#clip0_2688_19546)">
<path d="M14.1686 4.94112L17.4039 6.70583L19.1686 7.8823V10.5294V16.1176L12.1098 20.2352L4.75684 16.1176V7.8823L7.40389 6.11759L12.1098 3.76465L14.1686 4.94112Z" fill="url(#paint0_linear_2688_19546)"/>
<g filter="url(#filter0_d_2688_19546)">
<path fill-rule="evenodd" clip-rule="evenodd" d="M11.9996 3.98676L5.05994 7.99338L5.05994 16.0066L11.9996 20.0132L18.9393 16.0066V7.99338L11.9996 3.98676ZM12.4606 2.12353C12.1753 1.95882 11.8239 1.95882 11.5386 2.12353L3.67685 6.6625C3.39156 6.82721 3.21582 7.13161 3.21582 7.46103L3.21582 16.539C3.21582 16.8684 3.39156 17.1728 3.67685 17.3375L11.5386 21.8765C11.8239 22.0412 12.1753 22.0412 12.4606 21.8765L20.3224 17.3375C20.6076 17.1728 20.7834 16.8684 20.7834 16.539V7.46103C20.7834 7.13161 20.6076 6.82721 20.3224 6.6625L12.4606 2.12353Z" fill="url(#paint1_radial_2688_19546)"/>
</g>
<g filter="url(#filter1_d_2688_19546)">
<path fill-rule="evenodd" clip-rule="evenodd" d="M18.5509 8.04006L12.1532 4.34631C12.0581 4.29141 11.9409 4.29141 11.8458 4.34631L5.44807 8.04006C5.35297 8.09497 5.29439 8.19643 5.29439 8.30624L5.29439 15.6937C5.29439 15.8035 5.35297 15.905 5.44807 15.9599L11.8458 19.6537C11.9409 19.7086 12.0581 19.7086 12.1532 19.6537L18.5509 15.9599C18.646 15.905 18.7046 15.8035 18.7046 15.6937V8.30624C18.7046 8.19643 18.646 8.09497 18.5509 8.04006ZM12.4605 3.81396C12.1753 3.64925 11.8238 3.64925 11.5385 3.81396L5.14072 7.50771C4.85543 7.67242 4.67969 7.97682 4.67969 8.30624L4.67969 15.6937C4.67969 16.0232 4.85543 16.3276 5.14072 16.4923L11.5385 20.186C11.8238 20.3507 12.1753 20.3507 12.4605 20.186L18.8583 16.4923C19.1436 16.3276 19.3193 16.0232 19.3193 15.6937V8.30624C19.3193 7.97682 19.1436 7.67242 18.8583 7.50771L12.4605 3.81396Z" fill="url(#paint2_radial_2688_19546)"/>
<path fill-rule="evenodd" clip-rule="evenodd" d="M18.5509 8.04006L12.1532 4.34631C12.0581 4.29141 11.9409 4.29141 11.8458 4.34631L5.44807 8.04006C5.35297 8.09497 5.29439 8.19643 5.29439 8.30624L5.29439 15.6937C5.29439 15.8035 5.35297 15.905 5.44807 15.9599L11.8458 19.6537C11.9409 19.7086 12.0581 19.7086 12.1532 19.6537L18.5509 15.9599C18.646 15.905 18.7046 15.8035 18.7046 15.6937V8.30624C18.7046 8.19643 18.646 8.09497 18.5509 8.04006ZM12.4605 3.81396C12.1753 3.64925 11.8238 3.64925 11.5385 3.81396L5.14072 7.50771C4.85543 7.67242 4.67969 7.97682 4.67969 8.30624L4.67969 15.6937C4.67969 16.0232 4.85543 16.3276 5.14072 16.4923L11.5385 20.186C11.8238 20.3507 12.1753 20.3507 12.4605 20.186L18.8583 16.4923C19.1436 16.3276 19.3193 16.0232 19.3193 15.6937V8.30624C19.3193 7.97682 19.1436 7.67242 18.8583 7.50771L12.4605 3.81396Z" fill="black" fill-opacity="0.1"/>
</g>
<g filter="url(#filter2_dd_2688_19546)">
<path d="M8.5416 14.9121H15.3802L11.9609 12.5087L8.5416 14.9121Z" fill="url(#paint3_linear_2688_19546)"/>
<path d="M7.23535 10.9165L8.5416 14.9121L11.9609 12.5087L7.23535 10.9165Z" fill="url(#paint4_linear_2688_19546)"/>
<path d="M10.0784 11.1855L7.23535 10.9165L11.9609 12.5087L10.0784 11.1855Z" fill="url(#paint5_linear_2688_19546)"/>
<path d="M11.9993 8.26562L10.0784 11.1855L11.9609 12.5087L11.9993 8.26562Z" fill="url(#paint6_linear_2688_19546)"/>
<path d="M13.8434 11.1855L11.9993 8.26562L11.9609 12.5087L13.8434 11.1855Z" fill="url(#paint7_linear_2688_19546)"/>
<path d="M16.7249 10.9165L13.8434 11.1855L11.9609 12.5087L16.7249 10.9165Z" fill="url(#paint8_linear_2688_19546)"/>
<path d="M15.3802 14.9121L16.7249 10.9165L11.9609 12.5087L15.3802 14.9121Z" fill="url(#paint9_linear_2688_19546)"/>
</g>
<g filter="url(#filter3_f_2688_19546)">
<path d="M20.0974 11.5696C20.0974 15.884 11.7407 17.8062 7.08668 17.8062C2.43271 17.8062 3.61508 10.0568 3.32324 8.34364C3.32324 5.53904 10.3885 2.77641 13.1082 3.07493C16.2586 3.42072 20.0974 7.25527 20.0974 11.5696Z" fill="url(#paint10_linear_2688_19546)" fill-opacity="0.7"/>
</g>
<g filter="url(#filter4_f_2688_19546)">
<path d="M15.5812 12.9684C15.3876 13.7429 16.2567 15.334 11.6028 15.334C6.94878 15.334 11.8946 12.7238 11.6027 11.0107C11.7102 10.2803 12.1625 9.29831 14.5059 10.7103C14.721 10.8399 15.6887 12.5379 15.5812 12.9684Z" fill="url(#paint11_linear_2688_19546)"/>
</g>
</g>
<defs>
<filter id="filter0_d_2688_19546" x="-0.78418" y="-2" width="25.5674" height="28" filterUnits="userSpaceOnUse" color-interpolation-filters="sRGB">
<feFlood flood-opacity="0" result="BackgroundImageFix"/>
<feColorMatrix in="SourceAlpha" type="matrix" values="0 0 0 0 0 0 0 0 0 0 0 0 0 0 0 0 0 0 127 0" result="hardAlpha"/>
<feOffset/>
<feGaussianBlur stdDeviation="2"/>
<feComposite in2="hardAlpha" operator="out"/>
<feColorMatrix type="matrix" values="0 0 0 0 0 0 0 0 0 0 0 0 0 0 0 0 0 0 0.25 0"/>
<feBlend mode="normal" in2="BackgroundImageFix" result="effect1_dropShadow_2688_19546"/>
<feBlend mode="normal" in="SourceGraphic" in2="effect1_dropShadow_2688_19546" result="shape"/>
</filter>
<filter id="filter1_d_2688_19546" x="3.67969" y="2.69043" width="16.6396" height="18.6191" filterUnits="userSpaceOnUse" color-interpolation-filters="sRGB">
<feFlood flood-opacity="0" result="BackgroundImageFix"/>
<feColorMatrix in="SourceAlpha" type="matrix" values="0 0 0 0 0 0 0 0 0 0 0 0 0 0 0 0 0 0 127 0" result="hardAlpha"/>
<feOffset/>
<feGaussianBlur stdDeviation="0.5"/>
<feComposite in2="hardAlpha" operator="out"/>
<feColorMatrix type="matrix" values="0 0 0 0 0 0 0 0 0 0 0 0 0 0 0 0 0 0 0.05 0"/>
<feBlend mode="normal" in2="BackgroundImageFix" result="effect1_dropShadow_2688_19546"/>
<feBlend mode="normal" in="SourceGraphic" in2="effect1_dropShadow_2688_19546" result="shape"/>
</filter>
<filter id="filter2_dd_2688_19546" x="-0.764648" y="4.26562" width="25.4893" height="22.6465" filterUnits="userSpaceOnUse" color-interpolation-filters="sRGB">
<feFlood flood-opacity="0" result="BackgroundImageFix"/>
<feColorMatrix in="SourceAlpha" type="matrix" values="0 0 0 0 0 0 0 0 0 0 0 0 0 0 0 0 0 0 127 0" result="hardAlpha"/>
<feOffset dy="4"/>
<feGaussianBlur stdDeviation="4"/>
<feComposite in2="hardAlpha" operator="out"/>
<feColorMatrix type="matrix" values="0 0 0 0 0 0 0 0 0 0 0 0 0 0 0 0 0 0 0.25 0"/>
<feBlend mode="normal" in2="BackgroundImageFix" result="effect1_dropShadow_2688_19546"/>
<feColorMatrix in="SourceAlpha" type="matrix" values="0 0 0 0 0 0 0 0 0 0 0 0 0 0 0 0 0 0 127 0" result="hardAlpha"/>
<feOffset dx="4"/>
<feGaussianBlur stdDeviation="2"/>
<feComposite in2="hardAlpha" operator="out"/>
<feColorMatrix type="matrix" values="0 0 0 0 0 0 0 0 0 0 0 0 0 0 0 0 0 0 0.25 0"/>
<feBlend mode="normal" in2="effect1_dropShadow_2688_19546" result="effect2_dropShadow_2688_19546"/>
<feBlend mode="normal" in="SourceGraphic" in2="effect2_dropShadow_2688_19546" result="shape"/>
</filter>
<filter id="filter3_f_2688_19546" x="-8.67676" y="-8.94727" width="40.7744" height="38.7539" filterUnits="userSpaceOnUse" color-interpolation-filters="sRGB">
<feFlood flood-opacity="0" result="BackgroundImageFix"/>
<feBlend mode="normal" in="SourceGraphic" in2="BackgroundImageFix" result="shape"/>
<feGaussianBlur stdDeviation="6" result="effect1_foregroundBlur_2688_19546"/>
</filter>
<filter id="filter4_f_2688_19546" x="-2.40234" y="-2.00781" width="29.9922" height="29.3418" filterUnits="userSpaceOnUse" color-interpolation-filters="sRGB">
<feFlood flood-opacity="0" result="BackgroundImageFix"/>
<feBlend mode="normal" in="SourceGraphic" in2="BackgroundImageFix" result="shape"/>
<feGaussianBlur stdDeviation="6" result="effect1_foregroundBlur_2688_19546"/>
</filter>
<linearGradient id="paint0_linear_2688_19546" x1="11.9627" y1="3.76465" x2="11.9627" y2="20.2352" gradientUnits="userSpaceOnUse">
<stop stop-color="#484848"/>
<stop offset="1" stop-color="#1E1E1E"/>
</linearGradient>
<radialGradient id="paint1_radial_2688_19546" cx="0" cy="0" r="1" gradientUnits="userSpaceOnUse" gradientTransform="translate(11.9996 12) rotate(90) scale(10.1426)">
<stop stop-color="#F1E5C4"/>
<stop offset="0.223958" stop-color="#D4C391"/>
<stop offset="0.385417" stop-color="#F1E5C4"/>
<stop offset="0.604167" stop-color="#D4C391"/>
<stop offset="0.760417" stop-color="#F1E5C4"/>
<stop offset="0.96875" stop-color="#D4C391"/>
</radialGradient>
<radialGradient id="paint2_radial_2688_19546" cx="0" cy="0" r="1" gradientUnits="userSpaceOnUse" gradientTransform="translate(11.9995 12) rotate(90) scale(8.4522)">
<stop stop-color="#F1E5C4"/>
<stop offset="0.223958" stop-color="#D4C391"/>
<stop offset="0.385417" stop-color="#F1E5C4"/>
<stop offset="0.604167" stop-color="#D4C391"/>
<stop offset="0.760417" stop-color="#F1E5C4"/>
<stop offset="0.96875" stop-color="#D4C391"/>
</radialGradient>
<linearGradient id="paint3_linear_2688_19546" x1="11.9801" y1="8.26562" x2="11.9801" y2="14.9121" gradientUnits="userSpaceOnUse">
<stop stop-color="#CDB473"/>
<stop offset="1" stop-color="#8C7332"/>
</linearGradient>
<linearGradient id="paint4_linear_2688_19546" x1="7.38903" y1="12.4533" x2="11.7688" y2="12.607" gradientUnits="userSpaceOnUse">
<stop stop-color="#FFEBB8"/>
<stop offset="1" stop-color="#FFFBF2"/>
</linearGradient>
<linearGradient id="paint5_linear_2688_19546" x1="9.38682" y1="9.61029" x2="11.8841" y2="12.7222" gradientUnits="userSpaceOnUse">
<stop stop-color="#E9D192"/>
<stop offset="1" stop-color="#FFF7E3"/>
</linearGradient>
<linearGradient id="paint6_linear_2688_19546" x1="10.6547" y1="8.99559" x2="11.9993" y2="12.4149" gradientUnits="userSpaceOnUse">
<stop stop-color="#FFECBC"/>
<stop offset="1" stop-color="#FFFCF5"/>
</linearGradient>
<linearGradient id="paint7_linear_2688_19546" x1="12.6909" y1="8.72665" x2="11.9993" y2="12.5686" gradientUnits="userSpaceOnUse">
<stop stop-color="#DCC382"/>
<stop offset="1" stop-color="#F6DD9C"/>
</linearGradient>
<linearGradient id="paint8_linear_2688_19546" x1="14.9576" y1="10.3787" x2="11.9993" y2="12.7607" gradientUnits="userSpaceOnUse">
<stop stop-color="#FFEDBF"/>
<stop offset="1" stop-color="#FFF0CA"/>
</linearGradient>
<linearGradient id="paint9_linear_2688_19546" x1="17.1475" y1="11.5697" x2="12.1146" y2="12.8759" gradientUnits="userSpaceOnUse">
<stop stop-color="#BDA463"/>
<stop offset="1" stop-color="#E6CD8C"/>
</linearGradient>
<linearGradient id="paint10_linear_2688_19546" x1="4.94279" y1="4.47951" x2="15.6607" y2="15.0863" gradientUnits="userSpaceOnUse">
<stop stop-color="#FFFDEE" stop-opacity="0.7"/>
<stop offset="1" stop-color="white" stop-opacity="0"/>
</linearGradient>
<linearGradient id="paint11_linear_2688_19546" x1="6.77064" y1="5.57807" x2="17.4885" y2="16.1849" gradientUnits="userSpaceOnUse">
<stop stop-color="#FFFDEE" stop-opacity="0.7"/>
<stop offset="1" stop-color="white" stop-opacity="0"/>
</linearGradient>
<clipPath id="clip0_2688_19546">
<rect width="24" height="24" fill="white"/>
</clipPath>
</defs>
</svg>
