<svg xmlns="http://www.w3.org/2000/svg" width="16" height="16" fill="none" data-c="1"><path fill="url(#a)" d="M6.049 1.903c.473-.151.763.488.485.9a4.8 4.8 0 0 0 6.664 6.664c.41-.279 1.05.011.9.484A6.4 6.4 0 1 1 6.05 1.903m5.15 1.983a.46.46 0 0 1-.456-.457c0-.252.205-.457.457-.457h.914v-.915c0-.251.206-.457.457-.457.252 0 .457.206.457.457v.915h.915c.251 0 .457.205.457.457a.46.46 0 0 1-.457.457h-.915V4.8a.46.46 0 0 1-.457.457.46.46 0 0 1-.457-.457v-.914zM9.372 6.629h.457v-.457a.459.459 0 0 1 .914 0v.457h.458c.251 0 .457.205.457.457a.46.46 0 0 1-.457.457h-.457V8a.46.46 0 0 1-.457.457A.46.46 0 0 1 9.828 8v-.457h-.457a.46.46 0 0 1-.457-.457c0-.252.206-.457.457-.457"/><defs><linearGradient id="a" x1="12.923" x2="4.307" y1="3.077" y2="15.385" gradientUnits="userSpaceOnUse"><stop offset=".59" stop-color="#024AD6"/><stop offset="1" stop-color="#001973"/></linearGradient></defs></svg>