<svg xmlns="http://www.w3.org/2000/svg" width="30" height="30" fill="none" data-c="1"><path fill="url(#a)" fill-rule="evenodd" d="M15.505 13.02a5.37 5.37 0 1 0-5.38 0q-.938.248-1.832.669a11.8 11.8 0 0 0-3.833 2.91 13.7 13.7 0 0 0-2.56 4.356 15 15 0 0 0-.9 5.138h23.63c0-1.764-.306-3.51-.9-5.138a13.7 13.7 0 0 0-2.56-4.356 11.8 11.8 0 0 0-3.834-2.91 11 11 0 0 0-1.83-.67" clip-rule="evenodd"/><path fill="#fff" d="m15.505 13.02-.502-.866a1 1 0 0 0 .245 1.832zm-5.38 0 .256.966a1 1 0 0 0 .245-1.832zm-1.832.669.426.904zm-3.833 2.91.751.66zM1.9 20.955l-.94-.343zM1 26.093H0a1 1 0 0 0 1 1zm23.63 0v1a1 1 0 0 0 1-1zm-7.294-12.404.426-.905zm-.15-5.319a4.37 4.37 0 0 1-2.183 3.784l1.004 1.73a6.37 6.37 0 0 0 3.178-5.514zM12.814 4a4.37 4.37 0 0 1 4.37 4.37h2A6.37 6.37 0 0 0 12.815 2zm-4.37 4.37A4.37 4.37 0 0 1 12.814 4V2a6.37 6.37 0 0 0-6.37 6.37zm2.181 3.784A4.37 4.37 0 0 1 8.444 8.37h-2a6.37 6.37 0 0 0 3.179 5.514zm-.758-.101q-1.026.273-2 .73l.851 1.81a10 10 0 0 1 1.662-.607zm-2 .73a12.8 12.8 0 0 0-4.158 3.155L5.21 17.26a10.8 10.8 0 0 1 3.508-2.667zM3.71 15.939a14.7 14.7 0 0 0-2.75 4.674l1.879.685A12.7 12.7 0 0 1 5.21 17.26zM.96 20.612a16 16 0 0 0-.96 5.48h2c0-1.648.286-3.277.839-4.795zm.04 6.48h11.815v-2H1zm11.815 0H24.63v-2H12.815zm12.815-1c0-1.877-.326-3.74-.96-5.48l-1.88.685c.554 1.517.84 3.147.84 4.796zm-.96-5.48a14.7 14.7 0 0 0-2.75-4.674l-1.502 1.322a12.7 12.7 0 0 1 2.373 4.037zm-2.75-4.674a12.8 12.8 0 0 0-4.158-3.154l-.852 1.81a10.8 10.8 0 0 1 3.508 2.666zm-4.158-3.154a12 12 0 0 0-2-.731l-.514 1.933q.849.226 1.662.607z"/><circle cx="23.556" cy="22.333" r="6.444" fill="#3971F3"/><path stroke="#fff" stroke-linecap="round" d="M20.333 22.334h6.445M23.556 19.111v6.445"/><defs><linearGradient id="a" x1="8.384" x2="18.508" y1="19.357" y2="9.985" gradientUnits="userSpaceOnUse"><stop stop-color="#fff"/><stop offset="1" stop-color="#D1E9FF"/></linearGradient></defs></svg>