<svg xmlns="http://www.w3.org/2000/svg" width="30" height="30" fill="none" data-c="1"><g clip-path="url(#a)"><path fill="url(#b)" stroke="#fff" stroke-width="2" d="M3.996 17.15a11.808 11.808 0 0 1 23.008 0l.757 3.274C28.775 24.811 25.443 29 20.941 29H10.059c-4.502 0-7.834-4.19-6.82-8.576z"/><path fill="url(#c)" stroke="#fff" stroke-width="2" d="M15.242 7c-3.165 0-5.187-2.42-6.334-5.079-.129-.298-.045-.5.106-.635.175-.156.494-.257.871-.113l4.264 1.63a3 3 0 0 0 2.2-.023l3.928-1.595c.366-.149.685-.06.866.09.157.13.245.326.136.62C20.29 4.567 18.412 7 15.243 7Z"/><rect width="11.314" height="1.886" x="10" y="18.6" fill="#3971F3" rx=".943"/><rect width="11.314" height="1.886" x="10" y="21.429" fill="#3971F3" rx=".943"/><rect width="8.486" height="1.886" x="16.6" y="17.657" fill="#3971F3" rx=".943" transform="rotate(90 16.6 17.657)"/><rect width="8.486" height="1.886" x="11.557" y="12" fill="#3971F3" rx=".943" transform="rotate(55.635 11.557 12)"/><rect width="8.486" height="1.886" fill="#3971F3" rx=".943" transform="scale(-1 1)rotate(55.635 -21.124 -12.483)"/><rect width="8" height="2" x="11" y="6" fill="#3971F3" rx="1"/></g><defs><linearGradient id="b" x1="3.543" x2="24.643" y1="29.148" y2="13.03" gradientUnits="userSpaceOnUse"><stop stop-color="#fff"/><stop offset="1" stop-color="#D2E9FF"/></linearGradient><linearGradient id="c" x1="15" x2="15" y1="-1" y2="8" gradientUnits="userSpaceOnUse"><stop stop-color="#fff"/><stop offset="1" stop-color="#D2E9FF"/></linearGradient><clipPath id="a"><path fill="#fff" d="M0 0h30v30H0z"/></clipPath></defs></svg>