<svg xmlns="http://www.w3.org/2000/svg" width="16" height="16" fill="none" data-c="1"><g clip-path="url(#a)"><path fill="url(#b)" d="M8 2.8c.32 0 .6-.247.6-.567V1a.6.6 0 0 0-1.2 0v1.233c0 .32.28.567.6.567m3.643 1.557c.237.237.62.227.858-.01l.873-.872a.6.6 0 1 0-.849-.849l-.872.873a.607.607 0 0 0-.01.858m-8.145-.01c.226.226.598.203.825-.024.226-.226.25-.598.023-.824l-.871-.873a.6.6 0 1 0-.85.849zM8 12a4 4 0 1 0 0-8 4 4 0 0 0 0 8m7-3.4a.6.6 0 1 0 0-1.2h-1.233c-.32 0-.567.28-.567.6s.246.6.567.6zm-12.767 0c.32 0 .567-.28.567-.6s-.247-.6-.567-.6H1a.6.6 0 1 0 0 1.2zm.393 4.774a.6.6 0 0 0 .849 0l.872-.872c.226-.227.202-.599-.024-.825s-.598-.25-.825-.024l-.872.872a.6.6 0 0 0 0 .849m9.9 0a.6.6 0 1 0 .848-.849l-.872-.872c-.227-.226-.599-.203-.825.024-.226.226-.25.598-.024.824zM8 15.6a.6.6 0 0 0 .6-.6v-1.233c0-.32-.28-.567-.6-.567s-.6.247-.6.567V15a.6.6 0 0 0 .6.6"/></g><defs><linearGradient id="b" x1="19.4" x2="19.4" y1="-3.4" y2="19.4" gradientUnits="userSpaceOnUse"><stop stop-color="#26B9FC"/><stop offset="1" stop-color="#3C2BFE"/></linearGradient><clipPath id="a"><path fill="#fff" d="M0 16h16V0H0z"/></clipPath></defs></svg>