<svg width="25" height="24" viewBox="0 0 25 24" fill="none" xmlns="http://www.w3.org/2000/svg">
<path d="M1.5 6C1.5 3.79086 3.29086 2 5.5 2H19.5C21.7091 2 23.5 3.79086 23.5 6V14C23.5 16.2091 21.7091 18 19.5 18H5.5C3.29086 18 1.5 16.2091 1.5 14V6Z" fill="url(#paint0_linear_3055_14456)"/>
<path d="M4.5 20.75C4.5 20.3358 4.83579 20 5.25 20H19.75C20.1642 20 20.5 20.3358 20.5 20.75C20.5 21.1642 20.1642 21.5 19.75 21.5H5.25C4.83579 21.5 4.5 21.1642 4.5 20.75Z" fill="url(#paint1_linear_3055_14456)"/>
<path d="M6 13L9.5 8.5L13 13L18.5 7" stroke="url(#paint2_linear_3055_14456)" stroke-width="1.5" stroke-linecap="round" stroke-linejoin="round"/>
<defs>
<linearGradient id="paint0_linear_3055_14456" x1="3" y1="4.5" x2="13.1379" y2="16.6421" gradientUnits="userSpaceOnUse">
<stop stop-color="#1A6BEB"/>
<stop offset="1" stop-color="#6EA6FF"/>
</linearGradient>
<linearGradient id="paint1_linear_3055_14456" x1="3.5" y1="17.5" x2="3.37689" y2="20.3458" gradientUnits="userSpaceOnUse">
<stop stop-color="#1A6BEB"/>
<stop offset="1" stop-color="#6EA6FF"/>
</linearGradient>
<linearGradient id="paint2_linear_3055_14456" x1="10.2969" y1="1" x2="21.9936" y2="1.50767" gradientUnits="userSpaceOnUse">
<stop stop-color="white"/>
<stop offset="1" stop-color="white" stop-opacity="0.5"/>
</linearGradient>
</defs>
</svg>
