<svg width="24" height="24" viewBox="0 0 24 24" fill="none" xmlns="http://www.w3.org/2000/svg">
<path fill-rule="evenodd" clip-rule="evenodd" d="M7 2C7 1.44772 7.44772 1 8 1C8.55228 1 9 1.44772 9 2V4H15V2C15 1.44772 15.4477 1 16 1C16.5523 1 17 1.44772 17 2V4H18C20.2091 4 22 5.79086 22 8V18C22 20.2091 20.2091 22 18 22H6C3.79086 22 2 20.2091 2 18V8C2 5.79086 3.79086 4 6 4H7V2Z" fill="url(#paint0_linear_3055_4535)"/>
<path d="M7.5 14L10.8636 17L17 12" stroke="url(#paint1_linear_3055_4535)" stroke-width="1.5" stroke-linecap="round" stroke-linejoin="round"/>
<path d="M4 9H20" stroke="url(#paint2_linear_3055_4535)" stroke-width="1.5" stroke-linecap="round" stroke-linejoin="round"/>
<defs>
<linearGradient id="paint0_linear_3055_4535" x1="4" y1="3.5" x2="14" y2="17" gradientUnits="userSpaceOnUse">
<stop stop-color="#1A6BEB"/>
<stop offset="1" stop-color="#6EA6FF"/>
</linearGradient>
<linearGradient id="paint1_linear_3055_4535" x1="10.7656" y1="7" x2="19.6579" y2="7.35199" gradientUnits="userSpaceOnUse">
<stop stop-color="white"/>
<stop offset="1" stop-color="white" stop-opacity="0.5"/>
</linearGradient>
<linearGradient id="paint2_linear_3055_4535" x1="9.5" y1="8" x2="23" y2="12.5" gradientUnits="userSpaceOnUse">
<stop stop-color="white"/>
<stop offset="1" stop-color="white" stop-opacity="0.5"/>
</linearGradient>
</defs>
</svg>
