<svg width="24" height="24" viewBox="0 0 24 24" fill="none" xmlns="http://www.w3.org/2000/svg">
<circle cx="12" cy="7" r="4.25" stroke="#333333" stroke-width="1.5"/>
<path d="M14 8C14 8.13132 13.9483 8.26136 13.8478 8.38268C13.7472 8.50401 13.5999 8.61425 13.4142 8.70711C13.2285 8.79997 13.008 8.87362 12.7654 8.92388C12.5227 8.97413 12.2626 9 12 9C11.7374 9 11.4773 8.97413 11.2346 8.92388C10.992 8.87362 10.7715 8.79997 10.5858 8.70711C10.4001 8.61425 10.2528 8.50401 10.1522 8.38268C10.0517 8.26136 10 8.13132 10 8" stroke="#333333" stroke-width="1.25" stroke-linecap="round"/>
<path d="M2.75 20.5789C2.75 16.8074 5.80742 13.75 9.57895 13.75H14.4211C18.1926 13.75 21.25 16.8074 21.25 20.5789C21.25 20.9496 20.9496 21.25 20.5789 21.25H3.42105C3.05044 21.25 2.75 20.9496 2.75 20.5789Z" stroke="#333333" stroke-width="1.5"/>
</svg>
